<?xml version="1.0" encoding="UTF-8"?>
<svg version="1.1" xmlns="http://www.w3.org/2000/svg" width="512" height="512">
<path d="M0 0 C0.9238147 0.00182281 1.84762939 0.00364563 2.79943848 0.00552368 C16.51727635 0.05105601 29.83589132 0.55809672 43.3125 3.3125 C44.16440918 3.47347168 45.01631836 3.63444336 45.89404297 3.80029297 C84.85311488 11.23228745 120.27088254 27.84401488 151.3125 52.3125 C151.85938477 52.74079102 152.40626953 53.16908203 152.96972656 53.61035156 C168.5095516 65.90102837 182.67089678 80.28639687 194.3125 96.3125 C195.15541209 97.43812795 195.99917119 98.56312208 196.84375 99.6875 C227.39793615 140.8457169 242.83452908 190.98512362 242.625 242 C242.62226578 243.38572205 242.62226578 243.38572205 242.61947632 244.79943848 C242.57394399 258.51727635 242.06690328 271.83589132 239.3125 285.3125 C239.15152832 286.16440918 238.99055664 287.01631836 238.82470703 287.89404297 C231.39271255 326.85311488 214.78098512 362.27088254 190.3125 393.3125 C189.88420898 393.85938477 189.45591797 394.40626953 189.01464844 394.96972656 C176.72397163 410.5095516 162.33860313 424.67089678 146.3125 436.3125 C145.18687205 437.15541209 144.06187792 437.99917119 142.9375 438.84375 C101.7792831 469.39793615 51.63987638 484.83452908 0.625 484.625 C-0.76072205 484.62226578 -0.76072205 484.62226578 -2.17443848 484.61947632 C-15.89227635 484.57394399 -29.21089132 484.06690328 -42.6875 481.3125 C-43.53940918 481.15152832 -44.39131836 480.99055664 -45.26904297 480.82470703 C-84.22811488 473.39271255 -119.64588254 456.78098512 -150.6875 432.3125 C-151.23438477 431.88420898 -151.78126953 431.45591797 -152.34472656 431.01464844 C-167.8845516 418.72397163 -182.04589678 404.33860313 -193.6875 388.3125 C-194.53041209 387.18687205 -195.37417119 386.06187792 -196.21875 384.9375 C-226.77293615 343.7792831 -242.20952908 293.63987638 -242 242.625 C-241.99817719 241.7011853 -241.99635437 240.77737061 -241.99447632 239.82556152 C-241.94894399 226.10772365 -241.44190328 212.78910868 -238.6875 199.3125 C-238.52652832 198.46059082 -238.36555664 197.60868164 -238.19970703 196.73095703 C-230.76771255 157.77188512 -214.15598512 122.35411746 -189.6875 91.3125 C-189.25920898 90.76561523 -188.83091797 90.21873047 -188.38964844 89.65527344 C-176.09897163 74.1154484 -161.71360313 59.95410322 -145.6875 48.3125 C-144.56187205 47.46958791 -143.43687792 46.62582881 -142.3125 45.78125 C-101.1542831 15.22706385 -51.01487638 -0.20952908 0 0 Z " fill="#0C1626" transform="translate(255.6875,13.6875)"/>
<path d="M0 0 C0.9238147 0.00182281 1.84762939 0.00364563 2.79943848 0.00552368 C16.51727635 0.05105601 29.83589132 0.55809672 43.3125 3.3125 C44.16440918 3.47347168 45.01631836 3.63444336 45.89404297 3.80029297 C84.85311488 11.23228745 120.27088254 27.84401488 151.3125 52.3125 C151.85938477 52.74079102 152.40626953 53.16908203 152.96972656 53.61035156 C168.5095516 65.90102837 182.67089678 80.28639687 194.3125 96.3125 C195.15541209 97.43812795 195.99917119 98.56312208 196.84375 99.6875 C227.39793615 140.8457169 242.83452908 190.98512362 242.625 242 C242.62226578 243.38572205 242.62226578 243.38572205 242.61947632 244.79943848 C242.57394399 258.51727635 242.06690328 271.83589132 239.3125 285.3125 C239.15152832 286.16440918 238.99055664 287.01631836 238.82470703 287.89404297 C231.39271255 326.85311488 214.78098512 362.27088254 190.3125 393.3125 C189.88420898 393.85938477 189.45591797 394.40626953 189.01464844 394.96972656 C176.72397163 410.5095516 162.33860313 424.67089678 146.3125 436.3125 C145.18687205 437.15541209 144.06187792 437.99917119 142.9375 438.84375 C101.7792831 469.39793615 51.63987638 484.83452908 0.625 484.625 C-0.76072205 484.62226578 -0.76072205 484.62226578 -2.17443848 484.61947632 C-15.89227635 484.57394399 -29.21089132 484.06690328 -42.6875 481.3125 C-43.53940918 481.15152832 -44.39131836 480.99055664 -45.26904297 480.82470703 C-84.22811488 473.39271255 -119.64588254 456.78098512 -150.6875 432.3125 C-151.23438477 431.88420898 -151.78126953 431.45591797 -152.34472656 431.01464844 C-167.8845516 418.72397163 -182.04589678 404.33860313 -193.6875 388.3125 C-194.53041209 387.18687205 -195.37417119 386.06187792 -196.21875 384.9375 C-226.77293615 343.7792831 -242.20952908 293.63987638 -242 242.625 C-241.99817719 241.7011853 -241.99635437 240.77737061 -241.99447632 239.82556152 C-241.94894399 226.10772365 -241.44190328 212.78910868 -238.6875 199.3125 C-238.52652832 198.46059082 -238.36555664 197.60868164 -238.19970703 196.73095703 C-230.76771255 157.77188512 -214.15598512 122.35411746 -189.6875 91.3125 C-189.25920898 90.76561523 -188.83091797 90.21873047 -188.38964844 89.65527344 C-176.09897163 74.1154484 -161.71360313 59.95410322 -145.6875 48.3125 C-144.56187205 47.46958791 -143.43687792 46.62582881 -142.3125 45.78125 C-101.1542831 15.22706385 -51.01487638 -0.20952908 0 0 Z M-127.6875 56.3125 C-128.64785156 56.99828125 -129.60820312 57.6840625 -130.59765625 58.390625 C-148.0700837 71.18992627 -164.59035029 85.99838046 -177.6875 103.3125 C-178.16364746 103.92867188 -178.63979492 104.54484375 -179.13037109 105.1796875 C-209.57359451 144.74735043 -224.8669057 192.50538695 -225 242.1875 C-225.00376648 242.96128998 -225.00753296 243.73507996 -225.01141357 244.53231812 C-225.12019382 288.58071366 -211.89145548 334.58955661 -185.6875 370.3125 C-184.99398437 371.27671875 -184.30046875 372.2409375 -183.5859375 373.234375 C-147.5942663 422.32548837 -95.82962352 454.99915486 -35.6875 465.3125 C-34.56311523 465.50730957 -34.56311523 465.50730957 -33.41601562 465.70605469 C-22.04661841 467.54932208 -10.55099845 467.51080873 0.9375 467.5625 C1.67045288 467.5679483 2.40340576 467.57339661 3.15856934 467.57901001 C52.49888489 467.85180303 102.1057685 450.5902968 140.3125 419.3125 C141.33214844 418.49652344 142.35179687 417.68054688 143.40234375 416.83984375 C157.0598866 405.74534452 169.67214 393.20420763 180.07714844 378.99658203 C181.31769748 377.30541458 182.58297188 375.63504115 183.8515625 373.96484375 C190.61462347 364.92917525 196.10647903 355.31244428 201.3125 345.3125 C201.84206299 344.31041504 201.84206299 344.31041504 202.38232422 343.28808594 C218.58734138 312.27436711 225.7940033 276.92883378 225.625 242.125 C225.62284485 241.31857056 225.6206897 240.51214111 225.61846924 239.68127441 C225.56301938 226.69318753 224.94045829 214.0681692 222.3125 201.3125 C222.00650879 199.82218262 222.00650879 199.82218262 221.69433594 198.30175781 C210.22865884 144.14437474 180.52503125 94.1088115 135.3125 61.3125 C134.77560547 60.9201416 134.23871094 60.5277832 133.68554688 60.12353516 C94.66505549 31.80641672 48.40011771 16.76532155 0.1875 17 C-0.61698578 17.00215515 -1.42147156 17.0043103 -2.25033569 17.00653076 C-46.70182471 17.19662352 -91.32298755 30.28741203 -127.6875 56.3125 Z " fill="#0E1D32" transform="translate(255.6875,13.6875)"/>
<path d="M0 0 C0.83958252 0.00966797 1.67916504 0.01933594 2.54418945 0.02929688 C18.59557869 0.33955858 32.91926702 5.38858606 44.57421875 16.84765625 C55.44461118 29.20494154 58.48493742 42.23479844 57.6875 58.25 C59.4509375 58.435625 59.4509375 58.435625 61.25 58.625 C65.22870426 59.11435935 68.86516559 60.0555205 72.6875 61.25 C72.6875 61.91 72.6875 62.57 72.6875 63.25 C67.2689234 63.47577402 62.91262279 62.71670113 57.6875 61.25 C57.32398438 62.22839844 56.96046875 63.20679688 56.5859375 64.21484375 C51.78307421 76.88002824 46.02140242 85.39055794 36.06860352 94.671875 C29.80526605 100.64772806 26.35257323 106.06598541 26.12695312 114.84960938 C26.12598633 115.94499023 26.12598633 115.94499023 26.125 117.0625 C26.07910135 124.68823204 26.07910135 124.68823204 24.28515625 127.26171875 C22.6875 128.25 22.6875 128.25 20.6875 128.25 C20.72875 128.9925 20.77 129.735 20.8125 130.5 C20.68206362 133.36960046 20.0329765 134.77093306 18.6875 137.25 C19.56631836 136.9003418 20.44513672 136.55068359 21.35058594 136.19042969 C44.18891453 127.11091746 67.09466111 118.2157343 90.04370117 109.41992188 C104.10324667 104.02918656 104.10324667 104.02918656 118.12109375 98.53125 C118.79914063 98.26258118 119.4771875 97.99391235 120.17578125 97.71710205 C123.15832784 96.53376047 126.13789288 95.34358159 129.11376953 94.14355469 C130.09845215 93.75071289 131.08313477 93.35787109 132.09765625 92.953125 C133.33721069 92.45280762 133.33721069 92.45280762 134.60180664 91.94238281 C136.6875 91.25 136.6875 91.25 139.6875 91.25 C141.04926922 92.89351457 142.37712066 94.56522656 143.6875 96.25 C145.132972 97.4063776 146.57862416 98.56253737 148.02734375 99.71484375 C151.37697893 102.8122711 153.99017612 106.58706609 156.6875 110.25 C154.31064633 112.62685367 152.5723388 113.11203552 149.38671875 114.15771484 C148.27796387 114.5250473 147.16920898 114.89237976 146.02685547 115.27084351 C144.82174316 115.66357452 143.61663086 116.05630554 142.375 116.4609375 C140.48187171 117.08668019 138.58874449 117.71242615 136.69567871 118.33835793 C134.03498231 119.21649093 131.37251645 120.0891898 128.71002197 120.96185303 C124.08468514 122.47841411 119.46114917 124.00042369 114.83911133 125.52700806 C112.38042527 126.33847062 109.92067684 127.14672361 107.4597168 127.95126343 C101.5524242 129.89767961 95.75580052 131.97426653 90.00057983 134.33123779 C86.28082085 135.80873715 82.487163 137.02906887 78.67578125 138.24609375 C77.84032272 138.51626816 77.0048642 138.78644257 76.14408875 139.06480408 C73.43034213 139.94200927 70.71518109 140.81474618 68 141.6875 C64.16201052 142.92607256 60.32495679 144.16751996 56.48828125 145.41015625 C55.514888 145.72525146 54.54149475 146.04034668 53.53860474 146.36499023 C46.77727671 148.55866028 40.03099414 150.79442107 33.29296875 153.05859375 C32.39161697 153.36117599 31.4902652 153.66375824 30.56159973 153.97550964 C26.25164111 155.42350781 21.94370685 156.87723514 17.63793945 158.33764648 C16.09200931 158.85805773 14.54603216 159.37832939 13 159.8984375 C12.29888596 160.13835922 11.59777191 160.37828094 10.87541199 160.62547302 C8.01066124 161.58547203 5.7326137 162.25 2.6875 162.25 C2.6875 156.31 2.6875 150.37 2.6875 144.25 C2.0275 144.25 1.3675 144.25 0.6875 144.25 C0.6875 148.87 0.6875 153.49 0.6875 158.25 C-3.29787339 157.5857711 -6.27665096 157.04769699 -9.93847656 155.72558594 C-11.25196075 155.25557159 -11.25196075 155.25557159 -12.59197998 154.77606201 C-13.53615784 154.4323053 -14.48033569 154.08854858 -15.453125 153.734375 C-16.46352844 153.37112122 -17.47393188 153.00786743 -18.51495361 152.63360596 C-21.86596071 151.42740067 -25.21424134 150.21381168 -28.5625 149 C-30.91978075 148.14934841 -33.27720528 147.29909515 -35.63476562 146.44921875 C-40.62025519 144.65085279 -45.60454577 142.84921861 -50.58789062 141.04492188 C-55.73099651 139.18288233 -60.87547666 137.32470816 -66.02148438 135.47070312 C-66.65661044 135.24187313 -67.29173651 135.01304314 -67.94610882 134.7772789 C-69.22667647 134.31591822 -70.50724586 133.85456237 -71.787817 133.39321136 C-83.45947614 129.18790714 -95.12383013 124.96291099 -106.78007507 120.71502686 C-112.54284954 118.61589498 -118.31012045 116.53108898 -124.08816528 114.47436523 C-126.90712451 113.46760213 -129.72036614 112.4457059 -132.53173828 111.41796875 C-134.30528182 110.77526476 -136.0861297 110.15282722 -137.8671875 109.53125 C-139.37345703 108.974375 -139.37345703 108.974375 -140.91015625 108.40625 C-142.17098022 107.95475586 -142.17098022 107.95475586 -143.45727539 107.49414062 C-145.3125 106.25 -145.3125 106.25 -146.20239258 103.75073242 C-146.3125 101.25 -146.3125 101.25 -144.4765625 99.08203125 C-143.63867188 98.41558594 -142.80078125 97.74914062 -141.9375 97.0625 C-138.63091183 94.55683388 -138.63091183 94.55683388 -136.3125 91.25 C-131.92573204 91.94760772 -127.96423877 93.43850385 -123.859375 95.07421875 C-123.11122025 95.3681955 -122.36306549 95.66217224 -121.59223938 95.96505737 C-119.95021924 96.61062832 -118.30891747 97.25802866 -116.66824341 97.90701294 C-112.10916923 99.70997901 -107.54449812 101.49868566 -102.98046875 103.2890625 C-101.99070541 103.67769974 -101.00094208 104.06633698 -99.98118591 104.4667511 C-86.80040391 109.63688047 -73.5863309 114.72109626 -60.375 119.8125 C-55.61581355 121.64694904 -50.85669653 123.48157805 -46.09765625 125.31640625 C-44.98897186 125.743806 -43.88028748 126.17120575 -42.73800659 126.61155701 C-33.58921948 130.13989241 -24.44818734 133.68789609 -15.3125 137.25 C-15.63992187 136.64671875 -15.96734375 136.0434375 -16.3046875 135.421875 C-17.48673027 132.87452701 -17.46671553 131.02587962 -17.3125 128.25 C-18.2715625 128.064375 -18.2715625 128.064375 -19.25 127.875 C-19.930625 127.66875 -20.61125 127.4625 -21.3125 127.25 C-23.12137284 123.63225433 -22.55927138 119.00682698 -22.56640625 114.98632812 C-22.84036607 106.83241864 -26.2884155 101.0086989 -32.0546875 95.36328125 C-33.42744194 94.09110094 -34.80518837 92.82428922 -36.1875 91.5625 C-43.37510058 84.72444345 -47.61448262 78.43299619 -51.3125 69.25 C-51.69664062 68.54359375 -52.08078125 67.8371875 -52.4765625 67.109375 C-53.3125 65.25 -53.3125 65.25 -53.3125 61.25 C-53.96476562 61.394375 -54.61703125 61.53875 -55.2890625 61.6875 C-60.03870177 62.69627294 -64.42659188 63.50715306 -69.3125 63.25 C-69.3125 62.26 -69.3125 61.27 -69.3125 60.25 C-67.93955778 59.90828994 -66.56399882 59.57708883 -65.1875 59.25 C-64.42179687 59.064375 -63.65609375 58.87875 -62.8671875 58.6875 C-59.97776648 58.1926756 -57.23852801 58.18215008 -54.3125 58.25 C-54.35890625 57.31800781 -54.4053125 56.38601562 -54.453125 55.42578125 C-54.87638422 40.4756611 -51.25757738 28.28183473 -41.19921875 16.84765625 C-30.12642788 5.96096271 -15.44530007 -0.18749985 0 0 Z " fill="#F9C22B" transform="translate(254.3125,147.75)"/>
<path d="M0 0 C11.89631219 2.86561325 23.67029456 6.10449482 35.43762207 9.45770264 C38.50039853 10.33042256 41.56403979 11.20004534 44.62792969 12.06884766 C48.64332445 13.20758972 52.65846572 14.34721667 56.67333984 15.48779297 C63.0295811 17.29297276 69.38791162 19.09051826 75.75 20.875 C76.69528564 21.14030518 77.64057129 21.40561035 78.61450195 21.67895508 C84.66160106 23.36805061 90.72312762 24.9980457 96.79052734 26.61254883 C107.26359403 29.39989671 117.64911555 32.36862372 128.00024414 35.5793457 C134.60156216 37.61350305 141.21725882 39.40243184 147.94140625 40.98046875 C154.00088695 42.50262896 159.99264661 44.28361332 166 46 C166 66.46 166 86.92 166 108 C160.79932677 108 157.66393388 107.86203919 152.875 106.625 C148.66530829 105.54250785 144.49121847 104.74977146 140.1953125 104.1171875 C132.58911182 102.97933705 125.06618768 101.50032996 117.52481079 100.00161743 C104.46318871 97.40659631 91.39118684 94.87160008 78.30078125 92.42578125 C76.55859818 92.09977432 76.55859818 92.09977432 74.78121948 91.7671814 C70.17887489 90.90651026 65.57647821 90.04624497 60.97241211 89.19482422 C46.22892985 86.46817678 31.59184606 83.45091854 17 80 C14.40041707 71.1034363 12.51456908 62.12044163 10.69628906 53.04016113 C9.8305297 48.71780353 8.95348465 44.39775291 8.07421875 40.078125 C7.81226212 38.7909256 7.81226212 38.7909256 7.54501343 37.47772217 C5.7261389 28.5859881 3.75838712 19.73044489 1.72729492 10.88476562 C1.4976001 9.87607422 1.26790527 8.86738281 1.03125 7.828125 C0.83080078 6.9609082 0.63035156 6.09369141 0.42382812 5.20019531 C0 3 0 3 0 0 Z " fill="#3383D1" transform="translate(89,268)"/>
<path d="M0 0 C-0.6406811 4.75624916 -1.44724347 9.43710616 -2.41796875 14.13671875 C-2.62456871 15.14058624 -2.62456871 15.14058624 -2.83534241 16.16473389 C-3.28371178 18.33948265 -3.73538012 20.51352808 -4.1875 22.6875 C-4.50165565 24.20385161 -4.81578291 25.7202091 -5.12988281 27.23657227 C-6.08187757 31.82536918 -7.04007886 36.4128555 -8 41 C-8.14560364 41.69665771 -8.29120728 42.39331543 -8.44122314 43.11108398 C-9.37046113 47.5547221 -10.3078575 51.99657599 -11.25 56.4375 C-11.48356201 57.54762451 -11.71712402 58.65774902 -11.95776367 59.80151367 C-13.41191441 66.60436043 -15.09437366 73.30952217 -17 80 C-22.75246401 81.29564809 -28.51232169 82.53595025 -34.29296875 83.69921875 C-35.06462875 83.85490829 -35.83628876 84.01059784 -36.6313324 84.17100525 C-39.1497401 84.67808562 -41.66855555 85.18309301 -44.1875 85.6875 C-45.0608197 85.86263123 -45.9341394 86.03776245 -46.83392334 86.21820068 C-60.53289095 88.96072648 -74.25387809 91.5578289 -87.99920654 94.05661011 C-100.03449935 96.24528346 -112.03426295 98.56874699 -124.0222168 101.00341797 C-131.87891562 102.59441441 -139.74201428 104.06178152 -147.65234375 105.359375 C-151.04825518 105.94314563 -151.04825518 105.94314563 -154.44140625 107.078125 C-158 108 -158 108 -166 108 C-166 87.54 -166 67.08 -166 46 C-157.42 43.69 -148.84 41.38 -140 39 C-135.55930173 37.78012893 -131.12072397 36.55837814 -126.6875 35.3125 C-125.6459375 35.02052734 -124.604375 34.72855469 -123.53125 34.42773438 C-117.5171265 32.73366822 -111.53913064 30.95480709 -105.578125 29.08203125 C-96.10320042 26.21679751 -86.53700773 23.6494909 -77 21 C-73.33276861 19.98118204 -69.66607098 18.96048595 -66 17.9375 C-65.04754395 17.67211426 -64.09508789 17.40672852 -63.11376953 17.13330078 C-55.27634201 14.93987873 -47.45386682 12.69631091 -39.6328125 10.4453125 C-37.3945472 9.8021092 -35.1562658 9.15896195 -32.91796875 8.51586914 C-29.52451518 7.54083657 -26.13150418 6.56438104 -22.73974609 5.58346558 C-19.53842401 4.65763857 -16.33575543 3.73660752 -13.1328125 2.81640625 C-11.66728439 2.39036606 -11.66728439 2.39036606 -10.17214966 1.95571899 C-8.82067337 1.56880386 -8.82067337 1.56880386 -7.44189453 1.17407227 C-6.65348175 0.9464772 -5.86506897 0.71888214 -5.05276489 0.48439026 C-3 0 -3 0 0 0 Z " fill="#4392DC" transform="translate(423,268)"/>
<path d="M0 0 C1.36176922 1.64351457 2.68962066 3.31522656 4 5 C5.445472 6.1563776 6.89112416 7.31253737 8.33984375 8.46484375 C11.68947893 11.5622711 14.30267612 15.33706609 17 19 C14.62314633 21.37685367 12.8848388 21.86203552 9.69921875 22.90771484 C8.59046387 23.2750473 7.48170898 23.64237976 6.33935547 24.02084351 C4.53168701 24.60994003 4.53168701 24.60994003 2.6875 25.2109375 C0.79437171 25.83668019 -1.09875551 26.46242615 -2.99182129 27.08835793 C-5.65251769 27.96649093 -8.31498355 28.8391898 -10.97747803 29.71185303 C-15.60281486 31.22841411 -20.22635083 32.75042369 -24.84838867 34.27700806 C-27.30707473 35.08847062 -29.76682316 35.89672361 -32.2277832 36.70126343 C-38.1350758 38.64767961 -43.93169948 40.72426653 -49.68692017 43.08123779 C-53.40667915 44.55873715 -57.200337 45.77906887 -61.01171875 46.99609375 C-61.84717728 47.26626816 -62.6826358 47.53644257 -63.54341125 47.81480408 C-66.25715787 48.69200927 -68.97231891 49.56474618 -71.6875 50.4375 C-75.52548948 51.67607256 -79.36254321 52.91751996 -83.19921875 54.16015625 C-84.172612 54.47525146 -85.14600525 54.79034668 -86.14889526 55.11499023 C-92.91022329 57.30866028 -99.65650586 59.54442107 -106.39453125 61.80859375 C-107.29588303 62.11117599 -108.1972348 62.41375824 -109.12590027 62.72550964 C-113.43585889 64.17350781 -117.74379315 65.62723514 -122.04956055 67.08764648 C-123.59549069 67.60805773 -125.14146784 68.12832939 -126.6875 68.6484375 C-127.73917107 69.00832008 -127.73917107 69.00832008 -128.81208801 69.37547302 C-131.67683876 70.33547203 -133.9548863 71 -137 71 C-137 64.73 -137 58.46 -137 52 C-130.0210848 49.29101723 -123.04195905 46.58258094 -116.0625 43.875 C-114.44609116 43.24791138 -114.44609116 43.24791138 -112.79702759 42.6081543 C-99.54888378 37.46925042 -86.29729583 32.3393769 -73.0390625 27.2265625 C-72.41825491 26.98712795 -71.79744732 26.74769341 -71.15782738 26.50100327 C-64.52191431 23.94165808 -57.88549145 21.38364175 -51.24829102 18.82763672 C-48.99231542 17.95809819 -46.73637426 17.08847032 -44.48046875 16.21875 C-43.38869827 15.79836456 -42.2969278 15.37797913 -41.17207336 14.94485474 C-35.16321915 12.6260879 -29.16679059 10.27876146 -23.18212891 7.8984375 C-21.88334331 7.38313561 -20.5845408 6.86787636 -19.28572083 6.35266113 C-16.8000075 5.36642844 -14.31733352 4.37347879 -11.83573914 3.37683105 C-10.72245743 2.9347229 -9.60917572 2.49261475 -8.4621582 2.03710938 C-7.47786331 1.64309937 -6.49356842 1.24908936 -5.47944641 0.84313965 C-3 0 -3 0 0 0 Z " fill="#C8DCED" transform="translate(394,239)"/>
<path d="M0 0 C0.91168945 0.15065918 1.82337891 0.30131836 2.76269531 0.45654297 C49.78796064 8.43719201 91.20990893 28.75450603 127 60 C127.5048291 60.44021484 128.0096582 60.88042969 128.52978516 61.33398438 C133.70210786 65.8705742 138.68146266 70.44795526 143.09375 75.734375 C144.53343254 77.4454731 146.02146833 79.11604873 147.53125 80.765625 C189.58855375 127.1229255 208.59255705 190.18378733 206.10614014 251.91638184 C205.0765181 272.12870902 201.10676247 291.74351876 195 311 C194.73348633 311.84385254 194.46697266 312.68770508 194.19238281 313.55712891 C183.77957866 345.66436379 165.99670177 373.68961461 144 399 C143.20207031 399.92296875 142.40414063 400.8459375 141.58203125 401.796875 C137.64551023 406.26865447 133.6298373 410.40291627 129.0703125 414.23828125 C126.79295353 416.17618483 124.62456851 418.21090147 122.4375 420.25 C75.35785712 462.58573994 12.23306975 480.26606672 -50 478 C-55.73512453 477.69419533 -61.33906375 476.96759152 -67 476 C-67.82016602 475.87109375 -68.64033203 475.7421875 -69.48535156 475.609375 C-117.19992258 468.09472145 -158.6763663 447.56807474 -195 416 C-195.92296875 415.20207031 -196.8459375 414.40414063 -197.796875 413.58203125 C-202.27229252 409.64230765 -206.41025793 405.62421736 -210.24609375 401.05859375 C-211.45158939 399.64368016 -212.69671984 398.26189086 -213.97265625 396.91015625 C-233.79787765 375.86159995 -250.21268231 348.37244445 -259.34228516 320.95556641 C-260.03687833 318.89035063 -260.77180556 316.84235513 -261.51171875 314.79296875 C-274.28532197 278.82931253 -277.85294385 239.2559115 -271.43994141 201.60449219 C-271.01115121 199.06601613 -270.63380437 196.52387959 -270.26171875 193.9765625 C-263.07134558 148.09832177 -239.12173159 105.05279627 -207 72 C-206.41992188 71.39414063 -205.83984375 70.78828125 -205.2421875 70.1640625 C-196.71653884 61.27562028 -187.90736678 53.31042723 -178 46 C-176.89314098 45.16287701 -175.78636963 44.32563808 -174.6796875 43.48828125 C-143.35618789 20.1283057 -106.46172373 5.8699048 -68 0 C-67.22430664 -0.12842285 -66.44861328 -0.2568457 -65.64941406 -0.38916016 C-44.60906279 -3.81913078 -20.99723917 -3.59360561 0 0 Z M-52.79003906 0.07617188 C-77.71813005 1.0190329 -104.12767877 8.28053083 -127 18 C-127.80356934 18.34111816 -128.60713867 18.68223633 -129.43505859 19.03369141 C-148.42541035 27.25888512 -165.85036457 38.10155283 -182 51 C-182.54108398 51.42539063 -183.08216797 51.85078125 -183.63964844 52.2890625 C-199.15435579 64.55426309 -213.47817267 78.9156559 -225 95 C-225.43683105 95.59780273 -225.87366211 96.19560547 -226.32373047 96.81152344 C-264.63983159 149.44972915 -278.44508968 212.30181888 -269.55224609 276.51611328 C-262.79467574 319.14676269 -243.99062639 359.26096377 -216 392 C-215.01 393.15822266 -215.01 393.15822266 -214 394.33984375 C-203.26322604 406.56105805 -191.80854674 418.10946627 -178.68701172 427.75732422 C-177.02898451 428.97864961 -175.39123502 430.22377916 -173.75390625 431.47265625 C-133.07988713 462.00083105 -82.96222731 476.28725797 -32.5 476.125 C-31.29730469 476.12886719 -30.09460938 476.13273437 -28.85546875 476.13671875 C-15.32130316 476.12218152 -2.44734049 474.99997338 10.8125 472.25 C11.79437286 472.04875519 11.79437286 472.04875519 12.79608154 471.84344482 C56.95828486 462.76754707 97.93194037 442.53183898 130.21923828 410.75 C132.0158347 408.98443884 133.83252449 407.24158404 135.65234375 405.5 C143.01655173 398.38110009 149.62689779 390.94871431 155.72509766 382.71923828 C156.9627098 381.05028678 158.22053819 379.39822447 159.48046875 377.74609375 C180.19896587 350.12691418 192.96663913 317.60612702 200 284 C200.23759033 282.89205078 200.23759033 282.89205078 200.47998047 281.76171875 C212.95496193 222.99905041 198.9520052 158.34232781 166.52050781 108.27685547 C162.30130231 101.95888654 157.7394063 95.93402314 153 90 C152.57460938 89.45891602 152.14921875 88.91783203 151.7109375 88.36035156 C139.44573691 72.84564421 125.0843441 58.52182733 109 47 C108.40219727 46.56316895 107.80439453 46.12633789 107.18847656 45.67626953 C59.512791 10.97245764 5.47928011 -1.51466008 -52.79003906 0.07617188 Z " fill="#152E52" transform="translate(290,18)"/>
<path d="M0 0 C4.38676559 0.69760735 8.34826503 2.18849411 12.453125 3.82421875 C13.20055466 4.11792358 13.94798431 4.41162842 14.71806335 4.7142334 C16.35934839 5.35953653 17.99991752 6.00666275 19.63986206 6.65536499 C24.22113301 8.46695129 28.80822474 10.26370912 33.39453125 12.0625 C34.38759781 12.45237595 35.38066437 12.84225189 36.40382385 13.24394226 C49.22914013 18.27479773 62.08358549 23.23028171 74.9375 28.1875 C76.15488861 28.65717194 77.37227722 29.12684387 78.6265564 29.61074829 C98.0700502 37.11140617 117.5256385 44.57986226 137 52 C137 56.95 137 61.9 137 67 C133.01462661 66.3357711 130.03584904 65.79769699 126.37402344 64.47558594 C125.49836731 64.16224304 124.62271118 63.84890015 123.72052002 63.52606201 C122.77634216 63.1823053 121.83216431 62.83854858 120.859375 62.484375 C119.84897156 62.12112122 118.83856812 61.75786743 117.79754639 61.38360596 C114.44653929 60.17740067 111.09825866 58.96381168 107.75 57.75 C105.39271925 56.89934841 103.03529472 56.04909515 100.67773438 55.19921875 C95.69224481 53.40085279 90.70795423 51.59921861 85.72460938 49.79492188 C80.58150349 47.93288233 75.43702334 46.07470816 70.29101562 44.22070312 C69.65588956 43.99187313 69.02076349 43.76304314 68.36639118 43.5272789 C67.08582353 43.06591822 65.80525414 42.60456237 64.524683 42.14321136 C52.85302386 37.93790714 41.18866987 33.71291099 29.53242493 29.46502686 C23.76965046 27.36589498 18.00237955 25.28108898 12.22433472 23.22436523 C9.40537549 22.21760213 6.59213386 21.1957059 3.78076172 20.16796875 C2.00721818 19.52526476 0.2263703 18.90282722 -1.5546875 18.28125 C-2.55886719 17.91 -3.56304687 17.53875 -4.59765625 17.15625 C-5.43820557 16.85525391 -6.27875488 16.55425781 -7.14477539 16.24414062 C-9 15 -9 15 -9.88989258 12.50073242 C-10 10 -10 10 -8.1640625 7.83203125 C-7.32617188 7.16558594 -6.48828125 6.49914062 -5.625 5.8125 C-2.31841183 3.30683388 -2.31841183 3.30683388 0 0 Z " fill="#C7DBEC" transform="translate(118,239)"/>
<path d="M0 0 C1.36176922 1.64351457 2.68962066 3.31522656 4 5 C5.93723623 6.76112384 7.94910902 8.36860945 10 10 C9.67 10.66 9.34 11.32 9 12 C8.525625 11.29875 8.05125 10.5975 7.5625 9.875 C5.27308239 7.77478168 5.27308239 7.77478168 3.11155701 8.13903809 C-2.52993833 9.53050315 -7.95400552 11.26588466 -13.40234375 13.28125 C-14.29674667 13.60676346 -15.1911496 13.93227692 -16.11265564 14.26765442 C-19.0561385 15.34005928 -21.99675779 16.42010507 -24.9375 17.5 C-27.02010956 18.26000434 -29.10295941 19.01935051 -31.18603516 19.77807617 C-34.44805704 20.96628187 -37.70992612 22.1548893 -40.97106934 23.34550476 C-52.92434211 27.70875531 -64.89939572 32.01101057 -76.875 36.3125 C-88.38645358 40.44773623 -99.89699395 44.58408 -111.37890625 48.80078125 C-112.16632202 49.08945572 -112.95373779 49.37813019 -113.76501465 49.67555237 C-117.36170115 50.99429454 -120.95667312 52.31730434 -124.54833984 53.6496582 C-125.76859863 54.09784912 -126.98885742 54.54604004 -128.24609375 55.0078125 C-129.29466553 55.39598145 -130.3432373 55.78415039 -131.42358398 56.18408203 C-134 57 -134 57 -137 57 C-137 55.35 -137 53.7 -137 52 C-130.02117688 49.29078094 -123.04195885 46.58258087 -116.0625 43.875 C-114.44609116 43.24791138 -114.44609116 43.24791138 -112.79702759 42.6081543 C-99.54888378 37.46925042 -86.29729583 32.3393769 -73.0390625 27.2265625 C-72.41825491 26.98712795 -71.79744732 26.74769341 -71.15782738 26.50100327 C-64.52191431 23.94165808 -57.88549145 21.38364175 -51.24829102 18.82763672 C-48.99231542 17.95809819 -46.73637426 17.08847032 -44.48046875 16.21875 C-43.38869827 15.79836456 -42.2969278 15.37797913 -41.17207336 14.94485474 C-35.16321915 12.6260879 -29.16679059 10.27876146 -23.18212891 7.8984375 C-21.88334331 7.38313561 -20.5845408 6.86787636 -19.28572083 6.35266113 C-16.8000075 5.36642844 -14.31733352 4.37347879 -11.83573914 3.37683105 C-10.72245743 2.9347229 -9.60917572 2.49261475 -8.4621582 2.03710938 C-7.47786331 1.64309937 -6.49356842 1.24908936 -5.47944641 0.84313965 C-3 0 -3 0 0 0 Z " fill="#B6C9DA" transform="translate(394,239)"/>
<path d="M0 0 C4.38676559 0.69760735 8.34826503 2.18849411 12.453125 3.82421875 C13.20055466 4.11792358 13.94798431 4.41162842 14.71806335 4.7142334 C16.35934839 5.35953653 17.99991752 6.00666275 19.63986206 6.65536499 C24.22113301 8.46695129 28.80822474 10.26370912 33.39453125 12.0625 C34.38759781 12.45237595 35.38066437 12.84225189 36.40382385 13.24394226 C49.22914013 18.27479773 62.08358549 23.23028171 74.9375 28.1875 C76.15488861 28.65717194 77.37227722 29.12684387 78.6265564 29.61074829 C98.07003266 37.1113994 117.5247301 44.58227962 137 52 C137 53.65 137 55.3 137 57 C131.04604444 55.80814807 125.42985465 54.23939628 119.74609375 52.11328125 C118.56124641 51.67860786 118.56124641 51.67860786 117.35246277 51.2351532 C115.62489211 50.60084109 113.89824441 49.96401083 112.17242432 49.32495117 C107.33426182 47.53389492 102.48886895 45.76255171 97.64453125 43.98828125 C96.58667419 43.60028351 95.52881714 43.21228577 94.43890381 42.81253052 C79.85957431 37.47167399 65.23997848 32.24229433 50.625 27 C49.25161166 26.50730979 47.87822903 26.01460367 46.50485229 25.5218811 C45.83481769 25.28149518 45.16478308 25.04110926 44.47444439 24.79343891 C42.48000508 24.07776209 40.48569005 23.36173971 38.49137878 22.64570618 C35.92758793 21.72532489 33.36309335 20.80694469 30.79804993 19.89006042 C24.96245109 17.80033012 19.13864733 15.68736798 13.33886719 13.5 C12.3184433 13.11811523 11.29801941 12.73623047 10.24667358 12.34277344 C8.36558015 11.63655725 6.48771723 10.92164808 4.61392212 10.19628906 C3.38263077 9.73561035 3.38263077 9.73561035 2.12646484 9.265625 C1.42065277 8.99524414 0.7148407 8.72486328 -0.01235962 8.44628906 C-2.38475436 7.9136103 -3.72644621 8.18275446 -6 9 C-8.2072358 10.48800372 -8.2072358 10.48800372 -10 12 C-8.62845314 8.81580579 -7.13830017 7.02887404 -4.4375 4.875 C-1.78974334 2.79096366 -1.78974334 2.79096366 0 0 Z " fill="#B9CCDC" transform="translate(118,239)"/>
<path d="M0 0 C1.32 0.99 2.64 1.98 4 3 C5.66733204 3.73371606 7.36501613 4.40048432 9.08007812 5.0144043 C10.61091034 5.56816742 10.61091034 5.56816742 12.17266846 6.13311768 C13.28100037 6.52618103 14.38933228 6.91924438 15.53125 7.32421875 C17.2747171 7.95188141 17.2747171 7.95188141 19.05340576 8.59222412 C21.55917811 9.49334615 24.06568248 10.39196491 26.57385254 11.28634644 C30.53185474 12.69778662 34.48641855 14.11868366 38.44042969 15.54125977 C43.11920993 17.22398653 47.79867545 18.90477494 52.47919846 20.58264828 C62.52511437 24.18418279 72.55909031 27.81813985 82.58740234 31.46838379 C85.23635875 32.43253494 87.88573682 33.39552049 90.53515625 34.35839844 C99.37001312 37.57146791 108.19716058 40.80469935 117.015625 44.0625 C118.3508017 44.55557396 118.3508017 44.55557396 119.71295166 45.05860901 C123.93653464 46.61891773 128.15907109 48.18196593 132.37988281 49.74975586 C133.86782413 50.30065743 135.35577905 50.85152223 136.84375 51.40234375 C137.51440491 51.65254272 138.18505981 51.9027417 138.8760376 52.16052246 C141.88899425 53.27398305 144.85807766 54.3167801 148 55 C148 56.65 148 58.3 148 60 C126.20141895 53.00147447 104.45047325 45.86069001 82.72593307 38.63586807 C80.82068645 38.0027205 78.91505524 37.3707438 77.00930786 36.73910522 C73.38665814 35.5375563 69.76541432 34.33186082 66.14453125 33.125 C64.52765411 32.58961357 64.52765411 32.58961357 62.87811279 32.04341125 C57.3130174 30.1828693 51.86014026 28.1691713 46.42762756 25.95339966 C42.30056705 24.33258346 38.08656411 22.99763966 33.86328125 21.65234375 C32.93960251 21.35437393 32.01592377 21.05640411 31.06425476 20.74940491 C28.14805773 19.80878719 25.23047205 18.87259554 22.3125 17.9375 C18.45317419 16.70046727 14.59532837 15.45896065 10.73828125 14.21484375 C9.86520828 13.93664291 8.99213531 13.65844208 8.09260559 13.37181091 C3.26564977 11.8145627 -1.37284378 10.07895789 -6 8 C-4.02 5.36 -2.04 2.72 0 0 Z " fill="#627891" transform="translate(107,251)"/>
<path d="M0 0 C2.64752004 2.57784846 4.94432065 4.91648098 7 8 C1.49086543 9.88484641 -4.01859128 11.76874746 -9.52832031 13.65185547 C-11.39396426 14.28963049 -13.25952713 14.92764272 -15.125 15.56591797 C-17.84092087 16.49512581 -20.55710861 17.42354814 -23.2734375 18.3515625 C-24.62329742 18.81299652 -24.62329742 18.81299652 -26.00042725 19.28375244 C-31.12728611 21.03258725 -36.26270148 22.75209716 -41.40769958 24.44676208 C-49.22342875 27.01083537 -49.22342875 27.01083537 -56.89453125 29.97265625 C-64.96278155 33.31082831 -73.38114881 35.76754927 -81.6875 38.4375 C-85.52548948 39.67607256 -89.36254321 40.91751996 -93.19921875 42.16015625 C-94.172612 42.47525146 -95.14600525 42.79034668 -96.14889526 43.11499023 C-102.91022329 45.30866028 -109.65650586 47.54442107 -116.39453125 49.80859375 C-117.29588303 50.11117599 -118.1972348 50.41375824 -119.12590027 50.72550964 C-123.43585889 52.17350781 -127.74379315 53.62723514 -132.04956055 55.08764648 C-133.59549069 55.60805773 -135.14146784 56.12832939 -136.6875 56.6484375 C-137.38861404 56.88835922 -138.08972809 57.12828094 -138.81208801 57.37547302 C-141.67683876 58.33547203 -143.9548863 59 -147 59 C-147 57.68 -147 56.36 -147 55 C-146.36458282 54.77101517 -145.72916565 54.54203033 -145.07449341 54.30610657 C-116.22293834 43.90847717 -87.37288884 33.50662448 -58.53411865 23.07357788 C-56.13894305 22.20719399 -53.74364348 21.34115274 -51.34820557 20.47549438 C-44.69916172 18.07241661 -38.05305648 15.66149398 -31.41052246 13.24047852 C-29.018034 12.37028031 -26.62474078 11.50266123 -24.23010254 10.63842773 C-20.44475229 9.27211397 -16.66373977 7.89413141 -12.8828125 6.515625 C-11.11911819 5.88173859 -11.11911819 5.88173859 -9.3197937 5.23504639 C-8.24375885 4.84069397 -7.167724 4.44634155 -6.05908203 4.04003906 C-4.62678757 3.52041595 -4.62678757 3.52041595 -3.16555786 2.99029541 C-0.83856567 2.19998826 -0.83856567 2.19998826 0 0 Z " fill="#667C95" transform="translate(404,251)"/>
<path d="M0 0 C5.76782878 4.35052043 8.46328595 10.10723066 9.546875 17.1875 C9.78925148 22.5298815 8.18569777 25.57156707 4.86328125 29.54296875 C2.21591082 31.77298902 -0.09888595 31.54090094 -3.44921875 31.41015625 C-7.69135034 30.56314162 -10.15583301 28.26665601 -12.796875 24.94140625 C-16.35336071 19.32257972 -17.98963075 13.55577905 -16.796875 6.94140625 C-15.47594359 3.23290899 -13.82201709 0.58886441 -10.421875 -1.55859375 C-6.40168016 -2.32434515 -3.58617949 -2.11272748 0 0 Z " fill="#FDDB6A" transform="translate(243.796875,160.05859375)"/>
<path d="M0 0 C5.37514905 -0.04935509 10.75016685 -0.08569802 16.12548828 -0.10986328 C17.95493873 -0.11993484 19.78437303 -0.13359276 21.61376953 -0.15087891 C24.23994934 -0.17507677 26.86591675 -0.18647132 29.4921875 -0.1953125 C30.72350906 -0.21079636 30.72350906 -0.21079636 31.97970581 -0.22659302 C33.98789142 -0.22699184 35.99555382 -0.1224954 38 0 C38.66 0.66 39.32 1.32 40 2 C39.34 2 38.68 2 38 2 C38.04125 2.721875 38.0825 3.44375 38.125 4.1875 C37.97987697 7.45276816 37.63601361 9.15228648 36 12 C33.43099497 13.46457296 31.24337221 14.50999774 28.5 15.5 C27.4162207 15.89723267 27.4162207 15.89723267 26.31054688 16.30249023 C20.00672048 18.39320299 15.98400549 17.89583123 10 15 C8.50150134 14.53678167 7.00157302 14.07815329 5.5 13.625 C2 12 2 12 0.5 9.75 C-0.09727112 6.46500883 -0.03129522 3.33294128 0 0 Z " fill="#A86B01" transform="translate(237,274)"/>
<path d="M0 0 C2.475 0.495 2.475 0.495 5 1 C5.8359375 3.02734375 5.8359375 3.02734375 6 6 C4.5489094 8.77980958 2.59306061 11.13157154 0.625 13.5625 C-0.48887533 14.98130463 -1.60215079 16.40058041 -2.71484375 17.8203125 C-3.54991455 18.8726709 -3.54991455 18.8726709 -4.40185547 19.94628906 C-5.8642705 21.82557951 -7.25927144 23.732213 -8.62890625 25.6796875 C-9.39074219 26.75476563 -10.15257812 27.82984375 -10.9375 28.9375 C-11.60652344 29.89527344 -12.27554687 30.85304687 -12.96484375 31.83984375 C-15 34 -15 34 -17.46484375 35.109375 C-20 35 -20 35 -22.3515625 33.05078125 C-23.10179687 32.14714844 -23.85203125 31.24351562 -24.625 30.3125 C-25.38039062 29.42175781 -26.13578125 28.53101563 -26.9140625 27.61328125 C-27.60242188 26.75089844 -28.29078125 25.88851562 -29 25 C-29.59167969 24.28714844 -30.18335938 23.57429688 -30.79296875 22.83984375 C-32 21 -32 21 -31.6875 18.25 C-31.460625 17.5075 -31.23375 16.765 -31 16 C-29.35 15.67 -27.7 15.34 -26 15 C-25.51789063 15.56589844 -25.03578125 16.13179687 -24.5390625 16.71484375 C-23.90742188 17.44832031 -23.27578125 18.18179688 -22.625 18.9375 C-21.99851563 19.66839844 -21.37203125 20.39929688 -20.7265625 21.15234375 C-19.12252286 23.08380906 -19.12252286 23.08380906 -17 24 C-16.76925781 23.48179687 -16.53851563 22.96359375 -16.30078125 22.4296875 C-14.5356999 19.13274877 -12.36987869 16.15268885 -10.1875 13.125 C-9.76146484 12.52558594 -9.33542969 11.92617187 -8.89648438 11.30859375 C-6.08809693 7.39129689 -3.12525369 3.66950792 0 0 Z " fill="#FEFCF7" transform="translate(270,194)"/>
<path d="M0 0 C5.37514905 -0.04935509 10.75016685 -0.08569802 16.12548828 -0.10986328 C17.95493873 -0.11993484 19.78437303 -0.13359276 21.61376953 -0.15087891 C24.23994934 -0.17507677 26.86591675 -0.18647132 29.4921875 -0.1953125 C30.72350906 -0.21079636 30.72350906 -0.21079636 31.97970581 -0.22659302 C33.98789142 -0.22699184 35.99555382 -0.1224954 38 0 C38.66 0.66 39.32 1.32 40 2 C39.34 2 38.68 2 38 2 C38 3.65 38 5.3 38 7 C25.33333333 7 12.66666667 7 0 7 C0 4.69 0 2.38 0 0 Z " fill="#C47F00" transform="translate(237,274)"/>
<path d="M0 0 C0.66 0 1.32 0 2 0 C2 5.94 2 11.88 2 18 C2.66 18.33 3.32 18.66 4 19 C3.67 19.33 3.34 19.66 3 20 C2.87630675 21.9935143 2.8220361 23.9913647 2.79467773 25.98852539 C2.77473251 27.26977798 2.75478729 28.55103058 2.73423767 29.87110901 C2.71725203 31.27995684 2.70037327 32.68880595 2.68359375 34.09765625 C2.66303085 35.53112905 2.64203456 36.96459569 2.62062073 38.39805603 C2.56533141 42.1775312 2.51595255 45.9570617 2.46777344 49.7366333 C2.41760835 53.59074855 2.36189629 57.44478309 2.30664062 61.29882812 C2.19897521 68.86581714 2.09754903 76.4328731 2 84 C3.32 84.33 4.64 84.66 6 85 C3.125 85.625 3.125 85.625 0 86 C-0.66 85.34 -1.32 84.68 -2 84 C-1.34 84 -0.68 84 0 84 C0 56.28 0 28.56 0 0 Z " fill="#0E2242" transform="translate(255,292)"/>
<path d="M0 0 C1.45047396 2.90094791 0.45356803 4.55972596 -0.4375 7.625 C-0.72496094 8.62789063 -1.01242188 9.63078125 -1.30859375 10.6640625 C-1.65083984 11.82035156 -1.65083984 11.82035156 -2 13 C2.455 12.505 2.455 12.505 7 12 C2.75127462 18.72505349 -1.55364102 25.40375316 -6 32 C-6.33 31.34 -6.66 30.68 -7 30 C-5.92481882 27.55667274 -4.80191434 25.23245477 -3.5625 22.875 C-3.22412109 22.21628906 -2.88574219 21.55757813 -2.53710938 20.87890625 C-1.69850074 19.24893453 -0.85015189 17.62398091 0 16 C-2.97 16.33 -5.94 16.66 -9 17 C-7.68990468 14.35295091 -6.37705236 11.7073344 -5.0625 9.0625 C-4.50272461 7.93038086 -4.50272461 7.93038086 -3.93164062 6.77539062 C-3.39506836 5.69741211 -3.39506836 5.69741211 -2.84765625 4.59765625 C-2.51773682 3.93258057 -2.18781738 3.26750488 -1.84790039 2.58227539 C-1 1 -1 1 0 0 Z " fill="#87B6E5" transform="translate(157,318)"/>
<path d="M0 0 C3.14003122 3.14003122 4.79842077 6.25553342 6.6875 10.1875 C7.00783203 10.84169922 7.32816406 11.49589844 7.65820312 12.16992188 C8.44428292 13.77727907 9.22288683 15.38828858 10 17 C7.03 16.67 4.06 16.34 1 16 C1.37253906 16.68707031 1.74507813 17.37414062 2.12890625 18.08203125 C2.60199219 18.98308594 3.07507813 19.88414062 3.5625 20.8125 C4.03816406 21.70582031 4.51382812 22.59914063 5.00390625 23.51953125 C6 26 6 26 5 29 C1.37 23.72 -2.26 18.44 -6 13 C-3 12 -3 12 3 13 C2.01 8.71 1.02 4.42 0 0 Z " fill="#99C4ED" transform="translate(354,318)"/>
<path d="M0 0 C0.82741699 0.01047363 1.65483398 0.02094727 2.50732422 0.03173828 C3.40322266 0.03818359 4.29912109 0.04462891 5.22216797 0.05126953 C6.62789062 0.07640625 6.62789062 0.07640625 8.06201172 0.10205078 C9.00689453 0.11107422 9.95177734 0.12009766 10.92529297 0.12939453 C13.26278464 0.15300556 15.59977295 0.18593562 17.93701172 0.22705078 C18.26701172 1.21705078 18.59701172 2.20705078 18.93701172 3.22705078 C13.57291911 6.0917045 9.5153036 7.9005865 3.49951172 6.10205078 C0.60239366 5.05108981 -1.47053383 3.95535375 -4.06298828 2.22705078 C-2.06298828 0.22705078 -2.06298828 0.22705078 0 0 Z " fill="#8B5906" transform="translate(248.06298828125,284.77294921875)"/>
<path d="M0 0 C0.66 0.33 1.32 0.66 2 1 C2 1.66 2 2.32 2 3 C-1.78951244 4.50548369 -5.58195031 6.00345314 -9.375 7.5 C-10.45523437 7.92925781 -11.53546875 8.35851562 -12.6484375 8.80078125 C-13.6796875 9.20683594 -14.7109375 9.61289062 -15.7734375 10.03125 C-16.72653809 10.40830078 -17.67963867 10.78535156 -18.66162109 11.17382812 C-21 12 -21 12 -23 12 C-22.7434082 10.10205078 -22.7434082 10.10205078 -22 8 C-20.29760742 7.02685547 -20.29760742 7.02685547 -18.10546875 6.3671875 C-17.31462891 6.11839844 -16.52378906 5.86960937 -15.70898438 5.61328125 C-14.46084961 5.24783203 -14.46084961 5.24783203 -13.1875 4.875 C-11.55521185 4.37492743 -9.92367287 3.87240159 -8.29296875 3.3671875 C-7.20278442 3.04403564 -7.20278442 3.04403564 -6.09057617 2.71435547 C-3.94112515 2.04281729 -3.94112515 2.04281729 -1.85668945 0.85205078 C-1.24398193 0.57087402 -0.63127441 0.28969727 0 0 Z " fill="#1A2941" transform="translate(296,273)"/>
<path d="M0 0 C0.33 0 0.66 0 1 0 C1 1.98 1 3.96 1 6 C-4.38027025 7.19088986 -9.45291384 8.2919519 -15 8 C-15 7.01 -15 6.02 -15 5 C-9.92523206 3.73694665 -5.27203646 2.72963916 0 3 C0 2.01 0 1.02 0 0 Z " fill="#B69E44" transform="translate(200,203)"/>
<path d="M0 0 C1 2 1 2 0.22265625 4.8203125 C-0.16019531 5.91085937 -0.54304687 7.00140625 -0.9375 8.125 C-1.31777344 9.22070312 -1.69804687 10.31640625 -2.08984375 11.4453125 C-2.54037109 12.70988281 -2.54037109 12.70988281 -3 14 C-1.68 14.33 -0.36 14.66 1 15 C-2.3 15.66 -5.6 16.32 -9 17 C-7.68990468 14.35295091 -6.37705236 11.7073344 -5.0625 9.0625 C-4.50272461 7.93038086 -4.50272461 7.93038086 -3.93164062 6.77539062 C-3.39506836 5.69741211 -3.39506836 5.69741211 -2.84765625 4.59765625 C-2.51773682 3.93258057 -2.18781738 3.26750488 -1.84790039 2.58227539 C-1 1 -1 1 0 0 Z " fill="#94BFE8" transform="translate(157,318)"/>
<path d="M0 0 C2.6796875 0.390625 2.6796875 0.390625 5.875 1.25 C6.92429688 1.52328125 7.97359375 1.7965625 9.0546875 2.078125 C11.55580822 2.86096915 13.71226102 3.74008578 16 5 C16 5.99 16 6.98 16 8 C11.82423832 7.31583566 8.11919593 5.98634991 4.1875 4.4375 C3.02605469 3.98246094 1.86460937 3.52742188 0.66796875 3.05859375 C-0.65267578 2.53458984 -0.65267578 2.53458984 -2 2 C-1.34 1.34 -0.68 0.68 0 0 Z " fill="#213048" transform="translate(223,277)"/>
<path d="M0 0 C5.23880078 0.55145271 9.97350697 1.42922093 15 3 C15 3.66 15 4.32 15 5 C9.5814234 5.22577402 5.22512279 4.46670113 0 3 C0 2.01 0 1.02 0 0 Z " fill="#C3A946" transform="translate(312,206)"/>
<path d="M0 0 C0 4.79152182 -3.3232941 7.08002753 -6.46484375 10.48046875 C-9.72482559 13.72035825 -13.18755632 16.44452004 -17 19 C-15.60652624 15.84795019 -13.97514921 13.73828227 -11.5234375 11.328125 C-10.51796875 10.33232422 -10.51796875 10.33232422 -9.4921875 9.31640625 C-8.79351562 8.63449219 -8.09484375 7.95257813 -7.375 7.25 C-6.66859375 6.55261719 -5.9621875 5.85523438 -5.234375 5.13671875 C-3.49401297 3.41987512 -1.74915019 1.70788168 0 0 Z " fill="#444436" transform="translate(301,231)"/>
<path d="M0 0 C-1 3 -1 3 -3.14453125 4.16796875 C-4.02496094 4.50441406 -4.90539062 4.84085938 -5.8125 5.1875 C-6.68519531 5.53167969 -7.55789063 5.87585938 -8.45703125 6.23046875 C-11 7 -11 7 -15 7 C-14 4 -14 4 -11.85546875 2.83203125 C-10.97503906 2.49558594 -10.09460938 2.15914062 -9.1875 1.8125 C-8.31480469 1.46832031 -7.44210937 1.12414062 -6.54296875 0.76953125 C-4 0 -4 0 0 0 Z " fill="#C4A944" transform="translate(331,163)"/>
<path d="M0 0 C5.44567686 1.02862785 10.11817117 2.24614784 15 5 C15 5.66 15 6.32 15 7 C9.22621075 6.5188509 5.04140164 4.81532819 0 2 C0 1.34 0 0.68 0 0 Z " fill="#C9AE45" transform="translate(181,163)"/>
<path d="M0 0 C0.66 0 1.32 0 2 0 C1.38821244 3.65396407 -0.1664456 5.86042559 -2.4375 8.75 C-3.05496094 9.54921875 -3.67242187 10.3484375 -4.30859375 11.171875 C-4.86675781 11.77515625 -5.42492187 12.3784375 -6 13 C-6.66 13 -7.32 13 -8 13 C-7.38821244 9.34603593 -5.8335544 7.13957441 -3.5625 4.25 C-2.94503906 3.45078125 -2.32757813 2.6515625 -1.69140625 1.828125 C-1.13324219 1.22484375 -0.57507813 0.6215625 0 0 Z " fill="#C8AD45" transform="translate(300,123)"/>
<path d="M0 0 C3.36165806 1.41043479 5.09505232 3.01526034 7.25 5.9375 C8.03117188 6.97197266 8.03117188 6.97197266 8.828125 8.02734375 C10 10 10 10 10 13 C6.63834194 11.58956521 4.90494768 9.98473966 2.75 7.0625 C2.22921875 6.37285156 1.7084375 5.68320313 1.171875 4.97265625 C0 3 0 3 0 0 Z " fill="#C8AD45" transform="translate(210,123)"/>
<path d="M0 0 C5.66129431 4.69766975 10.85228904 9.74723372 16 15 C11.08347108 15 8.39965635 11.30044459 5 8 C0 2.70095694 0 2.70095694 0 0 Z " fill="#454638" transform="translate(210,231)"/>
<path d="M0 0 C0.33 0 0.66 0 1 0 C1 1.98 1 3.96 1 6 C-1.64 6 -4.28 6 -7 6 C-6.67 5.01 -6.34 4.02 -6 3 C-4.02 3 -2.04 3 0 3 C0 2.01 0 1.02 0 0 Z " fill="#C2A744" transform="translate(200,203)"/>
<path d="M0 0 C2.97 0.99 5.94 1.98 9 3 C9 3.33 9 3.66 9 4 C6.36 4 3.72 4 1 4 C0.67 2.68 0.34 1.36 0 0 Z " fill="#CBD3D0" transform="translate(245,288)"/>
<path d="M0 0 C-0.33 1.32 -0.66 2.64 -1 4 C-2.98 4 -4.96 4 -7 4 C-7 3.34 -7 2.68 -7 2 C-2.25 0 -2.25 0 0 0 Z " fill="#CACFCB" transform="translate(267,288)"/>
<path d="M0 0 C1.32 0 2.64 0 4 0 C3.67 0.99 3.34 1.98 3 3 C1.02 3.33 -0.96 3.66 -3 4 C-1.75 2 -1.75 2 0 0 Z " fill="#CEB146" transform="translate(327,163)"/>
</svg>
